<svg width="155" height="155" viewBox="0 0 155 155" fill="none" xmlns="http://www.w3.org/2000/svg">
<mask id="mask0_382_758" style="mask-type:luminance" maskUnits="userSpaceOnUse" x="0" y="0" width="155" height="155">
<path d="M139.478 0L0 15.5218L15.5218 155L155 139.478L139.478 0Z" fill="white"/>
</mask>
<g mask="url(#mask0_382_758)">
<path d="M29.9751 128.307C30.0983 128.431 30.2369 128.556 30.3599 128.68L35.224 121.705C39.257 113.705 40.8271 106.403 40.8732 100.189C40.8116 96.8651 40.3498 93.5717 39.5187 90.3716C38.9336 88.4454 38.5027 86.4568 38.2256 84.4529C38.2256 84.4374 38.2256 84.4064 38.2256 84.3752C38.0409 83.0392 37.9177 81.6722 37.8563 80.3052C37.0096 58.2771 53.9724 39.4027 75.7378 38.1599L75.5839 38.0202C80.7712 37.6938 88.329 38.8435 94.6708 37.1658C101.244 35.286 107.216 31.6354 111.957 26.6022C112.188 26.3536 112.45 26.1361 112.726 25.9497L117.19 19.565C98.5036 6.48495 73.8444 2.89647 51.2171 12.2327C15.6907 26.8664 -1.33371 67.8154 13.1817 103.669C16.8143 112.633 22.0632 120.431 28.4667 126.847C28.9592 127.344 29.4519 127.825 29.9597 128.307H29.9751Z" fill="url(#paint0_linear_382_758)"/>
<path d="M120.453 31.6977C120.345 32.0239 120.222 32.3656 120.037 32.6763C115.835 40.6145 114.05 52.6072 114.434 57.3453C115.066 65.2212 117.451 70.3322 116.713 76.3596C117.267 98.2167 100.335 116.78 78.7386 117.977C78.7386 117.977 78.7079 117.977 78.6926 117.977C73.9361 118.287 73.382 117.821 69.026 118.023C60.0365 118.427 50.4469 122.218 43.7972 129.301L39.3486 135.686C40.6264 136.54 41.9193 137.348 43.2277 138.156C43.8279 138.498 44.4283 138.824 45.0287 139.15C62.5918 148.502 83.9722 150.226 103.783 142.055C139.309 127.406 156.334 86.4569 141.818 50.6031C137.847 40.801 131.921 32.3811 124.686 25.6392L120.453 31.6977Z" fill="url(#paint1_linear_382_758)"/>
</g>
<defs>
<linearGradient id="paint0_linear_382_758" x1="62.5952" y1="7" x2="62.5952" y2="128.68" gradientUnits="userSpaceOnUse">
<stop stop-color="white"/>
<stop offset="1" stop-color="white" stop-opacity="0.45"/>
</linearGradient>
<linearGradient id="paint1_linear_382_758" x1="93.1743" y1="25.6392" x2="93.1743" y2="147.288" gradientUnits="userSpaceOnUse">
<stop stop-color="white" stop-opacity="0.45"/>
<stop offset="1" stop-color="white"/>
</linearGradient>
</defs>
</svg>
